<?xml version="1.0" standalone="no"?>
<!DOCTYPE svg PUBLIC "-//W3C//DTD SVG 1.1//EN" "http://www.w3.org/Graphics/SVG/1.1/DTD/svg11.dtd" >
<svg xmlns="http://www.w3.org/2000/svg">
<metadata>Generated by IcoMoon</metadata>
<defs>
<font id="icomoon" horiz-adv-x="1024">
<font-face units-per-em="1024" ascent="960" descent="-64" />
<missing-glyph horiz-adv-x="1024" />
<glyph unicode="&#x20;" horiz-adv-x="512" d="" />
<glyph unicode="&#xe900;" glyph-name="Icon--1" d="M725.333 768c70.692 0 128-57.308 128-128v-426.667c0-70.692-57.308-128-128-128h-426.667c-70.692 0-128 57.308-128 128v426.667c0 70.692 57.308 128 128 128h426.667zM725.333 725.334h-426.667c-47.128 0-85.333-38.205-85.333-85.333v-426.667c0-47.128 38.205-85.333 85.333-85.333h426.667c47.128 0 85.333 38.205 85.333 85.333v426.667c0 47.128-38.205 85.333-85.333 85.333zM640 469.334c23.564 0 42.667-19.103 42.667-42.667s-19.103-42.667-42.667-42.667h-256c-23.564 0-42.667 19.103-42.667 42.667s19.103 42.667 42.667 42.667h256z" />
<glyph unicode="&#xe901;" glyph-name="Icon--2" d="M682.667 768c94.257 0 170.667-76.41 170.667-170.667v-341.333c0-94.257-76.41-170.667-170.667-170.667h-341.333c-94.257 0-170.667 76.41-170.667 170.667v341.333c0 94.257 76.41 170.667 170.667 170.667h341.333zM682.667 725.334h-341.333c-70.692 0-128-57.308-128-128v-341.333c0-70.692 57.308-128 128-128h341.333c70.692 0 128 57.308 128 128v341.333c0 70.692-57.308 128-128 128zM656.204 555.53c8.331 8.331 21.839 8.331 30.17 0s8.331-21.839 0-30.17l-227.556-227.556c-8.331-8.331-21.839-8.331-30.17 0l-91.022 91.022c-8.331 8.331-8.331 21.839 0 30.17s21.839 8.331 30.17 0l75.923-75.928 212.485 212.461z" />
<glyph unicode="&#xe902;" glyph-name="Icon--3" d="M384 554.667c70.692 0 128-57.308 128-128s-57.308-128-128-128c-70.692 0-128 57.308-128 128s57.308 128 128 128zM384 512c-47.128 0-85.333-38.205-85.333-85.333s38.205-85.333 85.333-85.333c47.128 0 85.333 38.205 85.333 85.333s-38.205 85.333-85.333 85.333zM643.422 725.334c140.525 0 252.578-134.55 252.578-298.667s-112.053-298.667-252.578-298.667h-262.845c-140.525 0-252.578 134.55-252.578 298.667s112.053 298.667 252.578 298.667h262.845zM643.422 680.329h-262.845c-113.514 0-207.401-112.736-207.401-253.662s93.887-253.662 207.401-253.662h262.845c113.514 0 207.401 112.736 207.401 253.662s-93.887 253.662-207.401 253.662z" />
<glyph unicode="&#xe903;" glyph-name="Icon--4" d="M700.164 654.223c47.128 0 85.333-38.205 85.333-85.333v-398.222c0-47.128-38.205-85.333-85.333-85.333h-284.444c-47.128 0-85.333 38.205-85.333 85.333v398.222c0 47.128 38.205 85.333 85.333 85.333h284.444zM700.164 611.556h-284.444c-23.564 0-42.667-19.103-42.667-42.667v-398.222c0-23.564 19.103-42.667 42.667-42.667h284.444c23.564 0 42.667 19.103 42.667 42.667v398.222c0 23.564-19.103 42.667-42.667 42.667zM557.942 789.334c11.782 0 21.333-9.551 21.333-21.333s-9.551-21.333-21.333-21.333h-229.793c-35.346 0-64-28.654-64-64v-312.889c0-11.782-9.551-21.333-21.333-21.333s-21.333 9.551-21.333 21.333v312.889c0 58.91 47.756 106.667 106.667 106.667h229.793z" />
<glyph unicode="&#xe904;" glyph-name="Icon--5" d="M699.505 686.884c49.36 0 89.377-40.017 89.377-89.366 0-49.36-40.017-89.382-89.377-89.382-49.354 0-89.371 40.017-89.371 89.382 0 49.349 40.017 89.366 89.371 89.366v0zM780.493 477.104c-40.212 0-72.829-32.616-72.829-72.823 0-40.224 32.616-72.829 72.829-72.84 40.224 0 72.84 32.616 72.84 72.84-0.006 40.207-32.616 72.823-72.84 72.823v0zM696.050 266.236c-28.084 0-50.867-22.782-50.867-50.861 0-28.084 22.782-50.867 50.867-50.867 28.079 0 50.861 22.782 50.861 50.867 0 28.079-22.782 50.861-50.861 50.861v0zM501.491 183.931c-28.084 0-50.867-22.777-50.867-50.861 0-28.096 22.782-50.878 50.867-50.878s50.861 22.782 50.861 50.878c0.006 28.084-22.771 50.861-50.861 50.861v0zM302.673 260.895c-26.326 0-47.663-21.337-47.663-47.663 0-26.315 21.337-47.663 47.663-47.663 26.31 0 47.652 21.348 47.652 47.663 0 26.321-21.342 47.663-47.652 47.663v0zM221.433 461.75c-28.040 0-50.766-22.727-50.766-50.766 0-28.023 22.727-50.75 50.766-50.75 28.023 0 50.75 22.727 50.75 50.75 0 28.040-22.732 50.766-50.75 50.766v0zM302.673 672.975c-35.463 0-64.228-28.771-64.228-64.234s28.765-64.217 64.228-64.217c35.463 0 64.217 28.754 64.217 64.217s-28.754 64.234-64.217 64.234v0zM501.859 768c-42.702 0-77.344-34.631-77.344-77.327 0-42.702 34.642-77.333 77.344-77.333s77.333 34.631 77.333 77.333c0 42.696-34.631 77.327-77.333 77.327v0z" />
<glyph unicode="&#xe905;" glyph-name="Icon--6" d="M682.667 768c94.257 0 170.667-76.41 170.667-170.667v-341.333c0-94.257-76.41-170.667-170.667-170.667h-341.333c-94.257 0-170.667 76.41-170.667 170.667v341.333c0 94.257 76.41 170.667 170.667 170.667h341.333zM682.667 725.334h-341.333c-70.692 0-128-57.308-128-128v-341.333c0-70.692 57.308-128 128-128h341.333c70.692 0 128 57.308 128 128v341.333c0 70.692-57.308 128-128 128zM624.712 484.213c8.218 8.443 21.724 8.626 30.167 0.409s8.626-21.724 0.409-30.167l-124.578-128c-8.22-8.445-21.73-8.626-30.173-0.403l-131.422 128c-8.44 8.221-8.618 21.727-0.398 30.167s21.727 8.618 30.167 0.398l116.145-113.075 109.683 112.671z" />
<glyph unicode="&#xe906;" glyph-name="Icon--7" d="M511.92 789.334c31.965 0 61.31-17.673 76.26-45.928l276.453-522.621c14.045-26.694 13.049-58.801-2.624-84.573s-43.722-41.426-73.751-41.24h-552.708c-30.133-0.129-58.129 15.55-73.761 41.311s-16.613 57.834-2.582 84.502l276.454 522.623c14.949 28.254 44.294 45.926 76.259 45.926zM511.92 746.667c-16.157 0-30.99-8.933-38.545-23.212l-276.431-522.579c-7.035-13.371-6.542-29.502 1.321-42.459s21.944-20.843 37.193-20.778h552.934c15.172-0.094 29.28 7.78 37.163 20.742s8.384 29.111 1.342 42.495l-276.43 522.577c-7.556 14.281-22.389 23.214-38.546 23.214zM511.858 572.038c11.782 0 21.333-9.551 21.333-21.333v-186.17c0-11.782-9.551-21.333-21.333-21.333s-21.333 9.551-21.333 21.333v186.17c0 11.782 9.551 21.333 21.333 21.333zM558.4 255.935c0-25.705-20.838-46.542-46.542-46.542s-46.542 20.838-46.542 46.542c0 25.705 20.838 46.542 46.542 46.542s46.542-20.838 46.542-46.542z" />
<glyph unicode="&#xe907;" d="M682.667 768c94.257 0 170.667-76.41 170.667-170.667v-341.333c0-94.257-76.41-170.667-170.667-170.667h-341.333c-94.257 0-170.667 76.41-170.667 170.667v341.333c0 94.257 76.41 170.667 170.667 170.667h341.333zM682.667 725.334h-341.333c-70.692 0-128-57.308-128-128v-341.333c0-70.692 57.308-128 128-128h341.333c70.692 0 128 57.308 128 128v341.333c0 70.692-57.308 128-128 128z" />
<glyph unicode="&#xe908;" d="M533.333 533.334v-213.333c0-11.782-9.551-21.333-21.333-21.333s-21.333 9.551-21.333 21.333v213.333c0 11.782 9.551 21.333 21.333 21.333s21.333-9.551 21.333-21.333z" />
<glyph unicode="&#xe909;" d="M533.333 320c0-11.782-9.551-21.333-21.333-21.333s-21.333 9.551-21.333 21.333v213.333c0 11.782 9.551 21.333 21.333 21.333s21.333-9.551 21.333-21.333v-213.333z" />
<glyph unicode="&#xe90a;" d="M496.817 569.653c8.397 8.507 22.144 8.457 30.477-0.113l105.169-108.147c8.214-8.447 8.026-21.953-0.421-30.167s-21.953-8.026-30.167 0.421l-89.99 92.556-91.441-92.669c-7.357-7.454-18.847-8.352-27.199-2.647l-2.971 2.449c-8.386 8.276-8.474 21.784-0.198 30.169l106.739 108.147z" />
<glyph unicode="&#xe90b;" glyph-name="Icon--9" d="M682.667 768c94.257 0 170.667-76.41 170.667-170.667v-341.333c0-94.257-76.41-170.667-170.667-170.667h-341.333c-94.257 0-170.667 76.41-170.667 170.667v341.333c0 94.257 76.41 170.667 170.667 170.667h341.333zM682.667 725.334h-341.333c-70.692 0-128-57.308-128-128v-341.333c0-70.692 57.308-128 128-128h341.333c70.692 0 128 57.308 128 128v341.333c0 70.692-57.308 128-128 128zM678.191 553.223c11.782 0 21.333-9.551 21.333-21.333s-9.551-21.333-21.333-21.333h-336.857c-11.782 0-21.333 9.551-21.333 21.333s9.551 21.333 21.333 21.333h336.857zM507.524 339.89c11.782 0 21.333-9.551 21.333-21.333s-9.551-21.333-21.333-21.333h-166.191c-11.782 0-21.333 9.551-21.333 21.333s9.551 21.333 21.333 21.333h166.191z" />
<glyph unicode="&#xe90c;" glyph-name="Icon--10" d="M682.667 768c94.257 0 170.667-76.41 170.667-170.667v-341.333c0-94.257-76.41-170.667-170.667-170.667h-341.333c-94.257 0-170.667 76.41-170.667 170.667v341.333c0 94.257 76.41 170.667 170.667 170.667h341.333zM682.667 725.334h-341.333c-70.692 0-128-57.308-128-128v-341.333c0-70.692 57.308-128 128-128h341.333c70.692 0 128 57.308 128 128v341.333c0 70.692-57.308 128-128 128z" />
<glyph unicode="&#xe90d;" glyph-name="Icon--11" d="M682.667 789.334c106.039 0 192-85.961 192-192v-341.333c0-106.039-85.961-192-192-192h-341.333c-106.039 0-192 85.961-192 192v33.612c0 11.782 9.551 21.333 21.333 21.333s21.333-9.551 21.333-21.333v-33.612c0-82.475 66.859-149.333 149.333-149.333h341.333c82.475 0 149.333 66.859 149.333 149.333v341.333c0 82.475-66.859 149.333-149.333 149.333h-341.333c-82.475 0-149.333-66.859-149.333-149.333 0-11.782-9.551-21.333-21.333-21.333s-21.333 9.551-21.333 21.333c0 106.039 85.961 192 192 192h341.333zM560.824 448c11.782 0 21.333-9.551 21.333-21.333s-9.551-21.333-21.333-21.333h-390.157c-11.782 0-21.333 9.551-21.333 21.333s9.551 21.333 21.333 21.333h390.157zM456.948 537.456c8.595 8.059 22.096 7.624 30.154-0.971l89.285-95.226c7.8-8.319 7.678-21.3-0.275-29.471l-89.285-91.73c-8.218-8.443-21.724-8.625-30.167-0.408s-8.625 21.724-0.408 30.167l75.063 77.143-75.339 80.342c-7.163 7.64-7.616 19.156-1.591 27.281l2.562 2.874z" />
<glyph unicode="&#xe90e;" glyph-name="Icon--12" d="M682.667 768c94.257 0 170.667-76.41 170.667-170.667v-341.333c0-94.257-76.41-170.667-170.667-170.667h-341.333c-94.257 0-170.667 76.41-170.667 170.667v341.333c0 94.257 76.41 170.667 170.667 170.667h341.333zM682.667 725.334h-341.333c-70.692 0-128-57.308-128-128v-341.333c0-70.692 57.308-128 128-128h341.333c70.692 0 128 57.308 128 128v341.333c0 70.692-57.308 128-128 128zM678.191 553.223c11.782 0 21.333-9.551 21.333-21.333s-9.551-21.333-21.333-21.333h-336.857c-11.782 0-21.333 9.551-21.333 21.333s9.551 21.333 21.333 21.333h336.857zM678.191 339.89c11.782 0 21.333-9.551 21.333-21.333s-9.551-21.333-21.333-21.333h-336.857c-11.782 0-21.333 9.551-21.333 21.333s9.551 21.333 21.333 21.333h336.857z" />
<glyph unicode="&#xe90f;" glyph-name="Icon--13" d="M682.667 768c94.257 0 170.667-76.41 170.667-170.667v-341.333c0-94.257-76.41-170.667-170.667-170.667h-341.333c-94.257 0-170.667 76.41-170.667 170.667v341.333c0 94.257 76.41 170.667 170.667 170.667h341.333zM682.667 725.334h-341.333c-70.692 0-128-57.308-128-128v-341.333c0-70.692 57.308-128 128-128h341.333c70.692 0 128 57.308 128 128v341.333c0 70.692-57.308 128-128 128zM682.667 768c94.257 0 170.667-76.41 170.667-170.667v-85.333h-682.667v85.333c0 94.257 76.41 170.667 170.667 170.667h341.333zM682.667 725.334h-341.333c-70.692 0-128-57.308-128-128v-42.667h597.333v42.667c0 68.168-53.287 123.89-120.479 127.783l-7.521 0.217z" />
<glyph unicode="&#xe910;" glyph-name="Icon--14" d="M512.001 682.666c141.385 0 256-114.615 256-256s-114.615-256-256-256c-141.385 0-256 114.615-256 256s114.615 256 256 256zM512.001 639.999c-117.821 0-213.333-95.513-213.333-213.333s95.513-213.333 213.333-213.333c117.821 0 213.333 95.513 213.333 213.333s-95.513 213.333-213.333 213.333zM780.010 726.18c8.317 8.346 21.824 8.369 30.17 0.052s8.369-21.824 0.052-30.17l-581.357-583.362c-8.317-8.346-21.824-8.369-30.17-0.052s-8.369 21.824-0.052 30.17l581.357 583.362z" />
<glyph unicode="&#xe911;" glyph-name="Icon--15" d="M682.667 789.334c106.039 0 192-85.961 192-192v-174.656c0-106.039-85.961-192-192-192l-225.835 0.021-146.34-121.278c-12.979-10.753-32.17-2.854-34.671 12.929l-0.272 3.499-0.008 106.428-2.592 0.332c-67.511 11.012-119.629 67.839-123.397 137.522l-0.218 8.096v219.107c0 106.039 85.961 192 192 192h341.333zM682.667 746.667h-341.333c-82.475 0-149.333-66.859-149.333-149.333v-219.107c0-57.925 46.957-104.882 104.882-104.882 11.782 0 21.333-9.551 21.333-21.333l-0.008-80.747 117.349 97.175c2.87 2.378 6.295 3.948 9.925 4.585l3.685 0.321h233.5c82.475 0 149.333 66.859 149.333 149.333v174.656c0 82.475-66.859 149.333-149.333 149.333zM698.479 640c11.782 0 21.333-9.551 21.333-21.333s-9.551-21.333-21.333-21.333h-341.333c-11.782 0-21.333 9.551-21.333 21.333s9.551 21.333 21.333 21.333h341.333zM698.479 469.334c11.782 0 21.333-9.551 21.333-21.333s-9.551-21.333-21.333-21.333h-341.333c-11.782 0-21.333 9.551-21.333 21.333s9.551 21.333 21.333 21.333h341.333z" />
<glyph unicode="&#xe912;" glyph-name="Icon--16" d="M512 768c188.513 0 341.333-152.82 341.333-341.333s-152.82-341.333-341.333-341.333c-188.513 0-341.333 152.82-341.333 341.333s152.82 341.333 341.333 341.333zM512 725.334c-164.949 0-298.667-133.718-298.667-298.667s133.718-298.667 298.667-298.667c164.949 0 298.667 133.718 298.667 298.667s-133.718 298.667-298.667 298.667zM512 554.667c70.692 0 128-57.308 128-128s-57.308-128-128-128c-70.692 0-128 57.308-128 128s57.308 128 128 128z" />
<glyph unicode="&#xe913;" glyph-name="Icon--17" d="M606.108 332.559c8.331 8.331 21.839 8.331 30.17 0l168.141-168.141c8.331-8.331 8.331-21.839 0-30.17s-21.839-8.331-30.17 0l-168.141 168.141c-8.331 8.331-8.331 21.839 0 30.17zM452.267 746.667c143.741 0 260.267-116.525 260.267-260.267s-116.525-260.267-260.267-260.267c-143.741 0-260.267 116.525-260.267 260.267s116.525 260.267 260.267 260.267zM452.267 704c-120.177 0-217.6-97.423-217.6-217.6s97.423-217.6 217.6-217.6c120.177 0 217.6 97.423 217.6 217.6s-97.423 217.6-217.6 217.6z" />
<glyph unicode="&#xe914;" glyph-name="Icon--18" d="M853.333 426.667c0-188.513-152.82-341.333-341.333-341.333s-341.333 152.82-341.333 341.333c0 188.513 152.82 341.333 341.333 341.333 15.463 0 27.998-12.535 27.998-27.998s-12.535-27.998-27.998-27.998c-157.587 0-285.337-127.75-285.337-285.337s127.75-285.337 285.337-285.337c157.587 0 285.337 127.75 285.337 285.337 0 15.463 12.535 27.998 27.998 27.998s27.998-12.535 27.998-27.998v0z" />
<glyph unicode="&#xe915;" glyph-name="Icon--19" d="M682.667 768c94.257 0 170.667-76.41 170.667-170.667v-341.333c0-94.257-76.41-170.667-170.667-170.667h-341.333c-94.257 0-170.667 76.41-170.667 170.667v341.333c0 94.257 76.41 170.667 170.667 170.667h341.333zM682.667 725.334h-341.333c-70.692 0-128-57.308-128-128v-341.333c0-70.692 57.308-128 128-128h341.333c70.692 0 128 57.308 128 128v341.333c0 70.692-57.308 128-128 128zM384 469.334v-85.333h-85.333v85.333zM554.667 469.334v-85.333h-85.333v85.333zM725.333 469.334v-85.333h-85.333v85.333z" />
<glyph unicode="&#xe916;" glyph-name="Icon--20" d="M682.667 768c94.257 0 170.667-76.41 170.667-170.667v-341.333c0-94.257-76.41-170.667-170.667-170.667h-341.333c-94.257 0-170.667 76.41-170.667 170.667v341.333c0 94.257 76.41 170.667 170.667 170.667h341.333zM682.667 725.334h-341.333c-70.692 0-128-57.308-128-128v-341.333c0-70.692 57.308-128 128-128h341.333c70.692 0 128 57.308 128 128v341.333c0 70.692-57.308 128-128 128zM853.333 554.667v-298.667c0-94.257-76.41-170.667-170.667-170.667h-341.333c-94.257 0-170.667 76.41-170.667 170.667v298.667h682.667zM810.667 512h-597.333v-256c0-68.168 53.287-123.89 120.479-127.783l7.521-0.217h341.333c70.692 0 128 57.308 128 128v256zM197.368 311.825h612.515v42.667h-612.515zM362.303 524.527v-439.194h42.667v439.194zM618.303 524.527v-439.194h42.667v439.194z" />
<glyph unicode="&#xe917;" glyph-name="Icon--21" d="M682.667 768c94.257 0 170.667-76.41 170.667-170.667v-341.333c0-94.257-76.41-170.667-170.667-170.667h-341.333c-94.257 0-170.667 76.41-170.667 170.667v341.333c0 94.257 76.41 170.667 170.667 170.667h341.333zM682.667 725.334h-341.333c-70.692 0-128-57.308-128-128v-341.333c0-70.692 57.308-128 128-128h341.333c70.692 0 128 57.308 128 128v341.333c0 70.692-57.308 128-128 128zM709.91 441.693c8.402 8.404 22.032 8.411 30.443 0.017s8.419-22.012 0.017-30.416l-212.947-212.986c-8.402-8.404-22.032-8.411-30.443-0.017s-8.419 22.012-0.017 30.416l212.947 212.986zM709.962 281.803c8.601 8.468 22.31 8.229 30.622-0.533s8.077-22.73-0.524-31.197l-52.688-51.874c-8.601-8.468-22.31-8.229-30.622 0.533s-8.077 22.73 0.524 31.197l52.688 51.874z" />
<glyph unicode="&#xe918;" glyph-name="Icon--22" d="M565.333 266.667c0-23.564-19.103-42.667-42.667-42.667s-42.667 19.103-42.667 42.667c0 23.564 19.103 42.667 42.667 42.667s42.667-19.103 42.667-42.667zM523.367 661.334c68.336 0 123.733-55.397 123.733-123.733 0-33.298-13.243-64.551-36.349-87.601-2.902-2.895-6.192-5.553-10.117-8.307-3.657-2.566-21.177-13.419-25.724-16.626-20.566-14.503-30.21-30.238-30.21-58.133 0-11.782-9.551-21.333-21.333-21.333s-21.333 9.551-21.333 21.333c0 43.045 17.166 71.056 48.288 93.001 5.919 4.174 23.495 15.062 25.806 16.684 2.074 1.455 3.544 2.643 4.491 3.588 15.162 15.125 23.815 35.547 23.815 57.394 0 44.772-36.295 81.067-81.067 81.067-23.585 0-45.488-10.099-60.8-27.445-6.941-7.862-12.303-16.987-15.759-26.884-3.884-11.123-16.050-16.992-27.174-13.107s-16.992 16.050-13.107 27.174c5.286 15.136 13.474 29.069 24.054 41.055 23.328 26.426 56.833 41.874 92.787 41.874zM512 789.334c200.295 0 362.667-162.371 362.667-362.667s-162.371-362.667-362.667-362.667c-200.295 0-362.667 162.371-362.667 362.667s162.371 362.667 362.667 362.667zM512 746.667c-176.731 0-320-143.269-320-320s143.269-320 320-320c176.731 0 320 143.269 320 320s-143.269 320-320 320z" />
</font>
</defs>
</svg>
