<?xml version="1.0" encoding="UTF-8"?>
<svg width="19.8666667px" height="13.1614205px" viewBox="0 0 19.8666667 13.1614205" version="1.1" xmlns="http://www.w3.org/2000/svg" xmlns:xlink="http://www.w3.org/1999/xlink">
    <title>Combined Shape</title>
    <g id="Page-2" stroke="none" stroke-width="1" fill="none" fill-rule="evenodd">
        <g id="Artboard-Copy-4" transform="translate(-6.400000, -9.669290)" fill="#6A6A6A" fill-rule="nonzero">
            <g id="code-circle" transform="translate(6.400000, 9.669290)">
                <path d="M3.8424026,2.5115894 C4.07671717,2.27727483 4.45661616,2.27727483 4.69093074,2.5115894 C4.92524531,2.74590398 4.92524531,3.12580297 4.69093074,3.36011754 L1.448,6.60185347 L4.69093074,9.84492274 C4.89921036,10.0532024 4.92235254,10.3765116 4.76035728,10.6103534 L4.69093074,10.6934509 C4.45661616,10.9277655 4.07671717,10.9277655 3.8424026,10.6934509 L0.175735931,7.02678421 C-0.0585786438,6.79246963 -0.0585786438,6.41257065 0.175735931,6.17825607 L3.8424026,2.5115894 Z M15.1757359,2.5115894 C15.4100505,2.27727483 15.7899495,2.27727483 16.0242641,2.5115894 L19.6909307,6.17825607 C19.9252453,6.41257065 19.9252453,6.79246963 19.6909307,7.02678421 L16.0242641,10.6934509 C15.7899495,10.9277655 15.4100505,10.9277655 15.1757359,10.6934509 C14.9414214,10.4591363 14.9414214,10.0792373 15.1757359,9.84492274 L18.418,6.60185347 L15.1757359,3.36011754 C14.9674563,3.15183792 14.9443141,2.82852864 15.1063094,2.59468687 L15.1757359,2.5115894 Z M12.2007808,0.339009375 C12.3449978,0.04066715 12.703763,-0.0842759919 13.0021052,0.0599410565 C13.3004475,0.204158105 13.4253906,0.562923281 13.2811735,0.861265506 L7.49921922,12.8224111 C7.35500218,13.1207533 6.996237,13.2456965 6.69789477,13.1014794 C6.39955255,12.9572624 6.27460941,12.5984972 6.41882646,12.300155 L12.2007808,0.339009375 Z" id="Combined-Shape"></path>
            </g>
        </g>
    </g>
</svg>