<?xml version="1.0" encoding="UTF-8"?>
<svg width="167px" height="164px" viewBox="0 0 167 164" version="1.1" xmlns="http://www.w3.org/2000/svg" xmlns:xlink="http://www.w3.org/1999/xlink">
    <title>Group 4</title>
    <defs>
        <linearGradient x1="84.6433861%" y1="15.5859652%" x2="31.8021257%" y2="83.6163061%" id="linearGradient-1">
            <stop stop-color="#FFFFFF" offset="0%"></stop>
            <stop stop-color="#E9EFFA" offset="100%"></stop>
        </linearGradient>
        <path d="M13.9213068,7.63703564 L69.6634223,7.63703564 C72.9771308,7.63703564 75.6634223,10.3233271 75.6634223,13.6370356 C75.6634223,13.8012646 75.6566795,13.9654244 75.6432109,14.1291002 L70.8686095,72.152199 C70.6066077,75.3361627 67.8956869,77.756447 64.7025023,77.6572409 L13.7349883,76.0737783 C10.4953847,75.97313 7.92130685,73.3178386 7.92130685,70.0766718 L7.92130685,13.6370356 C7.92130685,10.3233271 10.6075983,7.63703564 13.9213068,7.63703564 Z" id="path-2"></path>
        <path d="M12.3498429,6.34984292 L68.6059656,6.34984292 C71.9196741,6.34984292 74.6059656,9.03613442 74.6059656,12.3498429 L74.6059656,68.6059656 C74.6059656,71.9196741 71.9196741,74.6059656 68.6059656,74.6059656 L12.3498429,74.6059656 C9.03613442,74.6059656 6.34984292,71.9196741 6.34984292,68.6059656 L6.34984292,12.3498429 C6.34984292,9.03613442 9.03613442,6.34984292 12.3498429,6.34984292 Z" id="path-4"></path>
        <rect id="path-6" x="0" y="0" width="68.2561227" height="92.1457657" rx="6"></rect>
    </defs>
    <g id="Icons-" stroke="none" stroke-width="1" fill="none" fill-rule="evenodd">
        <g id="Old-Copy" transform="translate(-794.000000, -282.000000)">
            <g id="Group-5" transform="translate(701.000000, 282.352316)">
                <g id="Group-4" transform="translate(93.497140, 0.000000)">
                    <g id="Group-9" transform="translate(0.000000, 0.000000)">
                        <path d="M85.0485412,142.26829 C125.568055,152.775876 143.836471,114.118375 141.068713,85.2946935 C138.300956,56.4710122 131.392964,28.0746781 94.7789367,19.9370153 C70.3695849,14.5119067 49.4744598,26.5352667 32.0935615,56.0070952 C9.02158088,103.311666 44.5290273,131.760705 85.0485412,142.26829 Z" id="Oval-Copy-13" fill="url(#linearGradient-1)" opacity="0.4" transform="translate(83.071347, 81.352223) scale(-1, 1) rotate(119.000000) translate(-83.071347, -81.352223) "></path>
                        <g id="Group-8" transform="translate(42.174677, 42.893808)">
                            <g id="Group-34">
                                <g id="Path-3" transform="translate(16.274238, 0.000000)">
                                    <mask id="mask-3" fill="white">
                                        <use xlink:href="#path-2" transform="translate(42.049368, 42.735660) rotate(15.000000) translate(-42.049368, -42.735660) "></use>
                                    </mask>
                                    <use id="Mask" fill="#FFFFFF" transform="translate(42.049368, 42.735660) rotate(15.000000) translate(-42.049368, -42.735660) " xlink:href="#path-2"></use>
                                    <path d="M71.8457498,15.4337262 L72.3152263,16.5599233 C72.9241819,18.0207078 74.1887741,19.1069422 75.7247117,19.4885358 L76.4615714,19.6716037 C78.0334003,20.0621142 78.991048,21.6529047 78.6005375,23.2247335 C78.5916082,23.2606747 78.5819988,23.2964435 78.5717146,23.3320206 C78.0828406,25.0232295 78.881457,26.8209532 80.4641168,27.591909 L80.5592584,27.638255 L80.5592584,27.638255 L85.3224611,26.4545201 L85.3224611,13.7605466 L79.4175348,10.655013 L71.8457498,15.4337262 Z" fill="#F1F4F9" mask="url(#mask-3)"></path>
                                </g>
                                <path d="M85.9376599,8.28703564 C87.4150216,8.28703564 88.7525216,8.88585479 89.7206812,9.85401436 C90.6831929,10.816526 91.2806608,12.1440815 91.2875988,13.6111948 L86.4950367,72.098892 C86.3782276,73.5184092 85.7155136,74.7676894 84.7260948,75.6510331 C83.7366761,76.5343767 82.4205526,77.0517837 80.9969244,77.0075543 L30.0294105,75.4240917 C28.5850872,75.3792194 27.2891207,74.7648745 26.354235,73.8004926 C25.4193494,72.8361108 24.8455445,71.521692 24.8455445,70.0766718 L24.8455445,13.6370356 C24.8455445,12.1596739 25.4443637,10.8221739 26.4125232,9.85401436 C27.3806828,8.88585479 28.7181828,8.28703564 30.1955445,8.28703564 Z" id="Rectangle-Copy-13" stroke="#404648" stroke-width="1.3" transform="translate(58.323606, 42.735660) rotate(15.000000) translate(-58.323606, -42.735660) "></path>
                                <g id="Path-19" transform="translate(0.000000, 8.137680)">
                                    <mask id="mask-5" fill="white">
                                        <use xlink:href="#path-4" transform="translate(40.477904, 40.477904) rotate(-12.000000) translate(-40.477904, -40.477904) "></use>
                                    </mask>
                                    <use id="Mask" fill="#FFFFFF" transform="translate(40.477904, 40.477904) rotate(-12.000000) translate(-40.477904, -40.477904) " xlink:href="#path-4"></use>
                                    <path d="M5.97400455,39.2601494 C8.08245129,39.012341 9.59079671,37.1022189 9.34298834,34.9937721 C9.33024458,34.8853434 9.31288726,34.7775068 9.29096359,34.6705557 L6.82817034,22.6562103 C6.35527038,20.3492431 7.83067809,18.0924086 10.1335879,17.6001296 C12.0095328,17.1991203 13.2052043,15.3532843 12.8041951,13.4773394 C12.755448,13.2492979 12.6838602,13.0267449 12.5905152,12.813049 L11.4199215,10.133194 L11.4199215,10.133194 L-4,13.6367183 L1.93312033e-12,40.4779043 L5.97400455,39.2601494 Z" fill="#F1F4F9" mask="url(#mask-5)"></path>
                                </g>
                                <path d="M68.6059656,15.1375234 C70.0833273,15.1375234 71.4208273,15.7363425 72.3889869,16.7045021 C73.3571465,17.6726617 73.9559656,19.0101617 73.9559656,20.4875234 L73.9559656,76.7436461 C73.9559656,78.2210078 73.3571465,79.5585078 72.3889869,80.5266674 C71.4208273,81.4948269 70.0833273,82.0936461 68.6059656,82.0936461 L12.3498429,82.0936461 C10.8724812,82.0936461 9.53498121,81.4948269 8.56682164,80.5266674 C7.59866206,79.5585078 6.99984292,78.2210078 6.99984292,76.7436461 L6.99984292,20.4875234 C6.99984292,19.0101617 7.59866206,17.6726617 8.56682164,16.7045021 C9.53498121,15.7363425 10.8724812,15.1375234 12.3498429,15.1375234 Z" id="Rectangle-Copy-17" stroke="#404648" stroke-width="1.3" transform="translate(40.477904, 48.615585) rotate(-12.000000) translate(-40.477904, -48.615585) "></path>
                                <g id="Path-80" transform="translate(17.725863, 0.836299)">
                                    <mask id="mask-7" fill="white">
                                        <use xlink:href="#path-6"></use>
                                    </mask>
                                    <use id="Mask" fill="#FFFFFF" xlink:href="#path-6"></use>
                                    <path d="M0,63.3196717 L4.4329847,68.3043955 C5.48191582,69.4838789 6.02381884,71.0291896 5.94126311,72.605458 L5.53406056,80.3803328 C5.36074539,83.6895058 7.90286044,86.5126203 11.2120334,86.6859354 C11.3451273,86.6929061 11.4784164,86.6954403 11.6116791,86.6935337 L27.1101937,86.4718028 C28.3923461,86.4534596 29.646651,86.8463617 30.6892085,87.5929038 L37.04735,92.1457657 L37.04735,92.1457657 L0,92.1457657 L0,63.3196717 Z" fill="#F1F4F9" mask="url(#mask-7)"></path>
                                    <path d="M0,12.5089286 L3.89648372,8.26286637 C6.16921482,5.78623403 9.3765129,4.37638092 12.7379136,4.37638092 L55.3234808,4.37638092 C58.5857674,4.37638092 61.7074523,5.70457592 63.9696526,8.05510012 L68.2561227,12.5089286 L68.2561227,12.5089286 L68.2561227,-3.77556229 L0,-3.77556229 L0,12.5089286 Z" id="Path-20" fill="#F1F4F9" mask="url(#mask-7)"></path>
                                </g>
                                <rect id="Rectangle-Copy-16" stroke="#404648" stroke-width="1.3" x="18.3758634" y="1.48629883" width="66.9561227" height="90.8457657" rx="6"></rect>
                                <g id="Group-6" transform="translate(53.000000, 41.520405) scale(1, -1) translate(-53.000000, -41.520405) translate(32.000000, 14.520405)">
                                    <rect id="Rectangle-Copy-21" fill="#464C4D" x="3.41060513e-13" y="23.5204045" width="21" height="1.3" rx="0.65"></rect>
                                    <rect id="Rectangle-Copy-20" fill="#464C4D" x="3.41060513e-13" y="32.8924045" width="31.5" height="1.3" rx="0.65"></rect>
                                    <rect id="Rectangle-Copy-22" fill="#464C4D" x="14" y="47" width="28" height="1.3" rx="0.65"></rect>
                                    <rect id="Rectangle" stroke="#464C4D" stroke-width="1.3" fill="#EAEAEB" x="0.65" y="42.65" width="10.7" height="10.7" rx="4"></rect>
                                    <path d="M27.4280678,0 L2,0 C0.8954305,2.02906125e-16 1.64108609e-15,0.8954305 0,2 L0,12.5178856 C-3.0881846e-16,13.6224551 0.8954305,14.5178856 2,14.5178856 C2.0008391,14.5178856 2.0016782,14.5178851 2.0025173,14.517884 L40.0025173,14.4700553 C41.106103,14.4686663 42,13.5736435 42,12.4700569 L42,2 C42,0.8954305 41.1045695,2.41183085e-16 40,0 L27.4280678,0 L27.4280678,0 Z" id="Path-79" stroke="#464C4D" stroke-width="1.3" stroke-linecap="round" stroke-linejoin="round" transform="translate(21.000000, 7.260202) scale(1, -1) translate(-21.000000, -7.260202) "></path>
                                    <polygon id="Rectangle" fill="#F1F2F5" transform="translate(16.500000, 7.520405) scale(1, -1) translate(-16.500000, -7.520405) " points="4 5.5204045 29 5.5204045 29 9.5204045 4 9.5204045"></polygon>
                                </g>
                            </g>
                            <g id="Group-7" transform="translate(73.328182, 75.753875)">
                                <path d="M10.0368153,0.65 L13.9631847,0.65 C17.0905349,0.65 18.3643712,0.980436734 19.6008436,1.64170939 C20.7895973,2.27746184 21.7225382,3.21040272 22.3582906,4.39915644 C23.0195633,5.63562881 23.35,6.90946514 23.35,10.0368153 L23.35,13.9631847 C23.35,17.0905349 23.0195633,18.3643712 22.3582906,19.6008436 C21.7225382,20.7895973 20.7895973,21.7225382 19.6008436,22.3582906 C18.3643712,23.0195633 17.0905349,23.35 13.9631847,23.35 L10.0368153,23.35 C6.90946514,23.35 5.63562881,23.0195633 4.39915644,22.3582906 C3.21040272,21.7225382 2.27746184,20.7895973 1.64170939,19.6008436 C0.980436734,18.3643712 0.65,17.0905349 0.65,13.9631847 L0.65,10.0368153 C0.65,6.90946514 0.980436734,5.63562881 1.64170939,4.39915644 C2.27746184,3.21040272 3.21040272,2.27746184 4.39915644,1.64170939 C5.63562881,0.980436734 6.90946514,0.65 10.0368153,0.65 Z" id="Rectangle" stroke="#404648" stroke-width="1.3" fill="#FFFFFF"></path>
                                <g id="Group" transform="translate(5.000000, 5.000000)">
                                    <rect id="Rectangle-Copy" fill="#FFFFFF" opacity="0" x="0" y="0" width="14" height="14"></rect>
                                    <g id="C6/Feather/Plus" transform="translate(0.875000, 0.875000)" stroke="#404648" stroke-linecap="round" stroke-linejoin="round" stroke-width="1.2">
                                        <line x1="6.125" y1="0" x2="6.125" y2="12.25" id="Path"></line>
                                        <line x1="0" y1="6.125" x2="12.25" y2="6.125" id="Path"></line>
                                    </g>
                                </g>
                            </g>
                        </g>
                    </g>
                </g>
            </g>
        </g>
    </g>
</svg>